<svg xmlns="http://www.w3.org/2000/svg" viewBox="0 0 100 100" width="100px" height="100px"><path fill="#a3a3cd" d="M85.77,27.49c-0.06-0.19-0.25-0.32-0.45-0.31c-1.69,0.07-2.81-0.59-3.4-2.01c-0.59-1.44-0.26-2.7,1.02-3.88c0.17-0.16,0.2-0.42,0.07-0.6c-1-1.4-2.21-2.62-3.59-3.61c-0.19-0.14-0.45-0.11-0.6,0.07c-1.06,1.18-2.27,1.56-3.61,1.11c-1.61-0.54-2.35-1.7-2.27-3.57c0.01-0.24-0.16-0.44-0.39-0.47c-1.71-0.27-3.41-0.27-5.07,0c-0.23,0.04-0.39,0.24-0.38,0.47c0.08,1.72-0.58,2.85-2,3.44c-1.44,0.61-2.71,0.28-3.88-1c-0.16-0.17-0.42-0.2-0.6-0.06c-1.38,1-2.59,2.22-3.58,3.6c-0.13,0.18-0.11,0.44,0.06,0.6c1.23,1.14,1.56,2.37,1.02,3.77c-0.58,1.45-1.7,2.14-3.43,2.09c-0.23-0.01-0.43,0.16-0.46,0.39c-0.27,1.66-0.27,3.36,0.01,5.05c0.04,0.22,0.23,0.38,0.45,0.38c1.68-0.04,2.77,0.62,3.36,1.99c0.6,1.42,0.29,2.68-0.93,3.85c-0.16,0.15-0.19,0.41-0.06,0.59c1,1.38,2.21,2.58,3.58,3.57c0.02,0.02,0.05,0.03,0.08,0.04c0.16,0.07,0.37,0.03,0.51-0.09c0.04-0.03,0.07-0.06,0.09-0.08c1.01-1.05,2.4-1.39,3.64-0.89c0.01,0,0.03,0.01,0.04,0.01c1.3,0.55,2.06,1.74,2.04,3.19c0,0.27,0.1,0.61,0.6,0.69c1.53,0.23,3.08,0.23,4.61,0.02c0.06-0.02,0.13-0.03,0.19-0.04l0.06-0.01c0.21-0.04,0.37-0.24,0.37-0.46c-0.03-1.55,0.54-2.59,1.76-3.21c1.49-0.74,2.83-0.47,4.09,0.84c0.16,0.16,0.41,0.18,0.59,0.05c1.39-0.99,2.6-2.19,3.6-3.55c0.13-0.18,0.11-0.44-0.06-0.6c-1.2-1.15-1.52-2.38-0.98-3.76c0.57-1.45,1.7-2.13,3.43-2.09c0.21,0.01,0.39-0.13,0.45-0.32C86.07,31.64,86.09,28.43,85.77,27.49z M70,33c-1.66,0-3-1.34-3-3c0-1.66,1.34-3,3-3s3,1.34,3,3C73,31.66,71.66,33,70,33z"/><path fill="#7777ab" d="M70,22c-4.41,0-8,3.59-8,8c0,4.41,3.59,8,8,8s8-3.59,8-8C78,25.59,74.41,22,70,22z M70,28c1.1,0,2,0.9,2,2c0,1.1-0.9,2-2,2s-2-0.9-2-2C68,28.9,68.9,28,70,28z"/><path fill="#a3a3cd" d="M57.59,68.53c-2.2-0.85-3.29-2.28-3.34-4.37c-0.04-2.2,1.05-3.71,3.34-4.6c0.27-0.1,0.43-0.38,0.4-0.66c-0.15-1.55-1.89-5.74-2.81-6.79c-0.19-0.21-0.5-0.27-0.75-0.15c-2.18,1.01-3.99,0.76-5.54-0.77c-1.56-1.54-1.81-3.38-0.79-5.61c0.14-0.3,0.04-0.65-0.24-0.82c-2.07-1.28-4.3-2.2-6.64-2.74c-0.32-0.08-0.65,0.1-0.75,0.42c-0.74,2.12-2.11,3.27-4.09,3.42c-2.4,0.17-4-0.94-4.92-3.42c-0.12-0.31-0.44-0.48-0.76-0.4c-2.38,0.58-4.6,1.52-6.61,2.78c-0.28,0.17-0.38,0.52-0.24,0.82c1.04,2.19,0.81,4.02-0.72,5.57c-1.54,1.58-3.38,1.84-5.6,0.82c-0.3-0.14-0.65-0.03-0.82,0.25c-1.25,2.06-2.16,4.3-2.69,6.64c-0.08,0.31,0.09,0.64,0.4,0.75c2.23,0.81,3.33,2.24,3.38,4.36c0.05,2.21-1.03,3.71-3.32,4.6c-0.3,0.11-0.47,0.44-0.39,0.75c0.56,2.32,1.5,4.53,2.77,6.58c0.18,0.27,0.52,0.38,0.81,0.25c2.16-0.97,3.94-0.71,5.46,0.76c1.55,1.52,1.84,3.32,0.89,5.52c-0.13,0.29-0.02,0.63,0.25,0.8c2.06,1.25,4.28,2.16,6.61,2.7C30.92,86,30.96,86,31,86c0.25,0,0.51-0.17,0.62-0.4c0.04-0.06,0.06-0.11,0.08-0.16c0.73-1.92,2.36-3.12,4.25-3.14c0.02-0.01,0.04-0.01,0.06-0.01c2,0,3.63,1.14,4.4,3.04c0.15,0.35,0.47,0.75,1.16,0.57c2.12-0.54,4.14-1.38,6.01-2.49c0.08-0.05,0.16-0.11,0.23-0.15l0.07-0.05c0.26-0.17,0.36-0.51,0.24-0.8c-0.89-2-0.72-3.68,0.54-5.14c1.53-1.79,3.42-2.16,5.78-1.15c0.29,0.12,0.63,0.01,0.8-0.26c1.27-2.05,2.19-4.27,2.74-6.59C58.05,68.96,57.89,68.64,57.59,68.53z M36,68c-2.21,0-4-1.79-4-4c0-2.21,1.79-4,4-4s4,1.79,4,4C40,66.21,38.21,68,36,68z"/><path fill="#7777ab" d="M36,50c-7.72,0-14,6.28-14,14c0,7.72,6.28,14,14,14s14-6.28,14-14C50,56.28,43.72,50,36,50z M36,73c-4.96,0-9-4.04-9-9c0-4.96,4.04-9,9-9s9,4.04,9,9C45,68.96,40.96,73,36,73z"/><path fill="#1f212b" d="M31.003,87c-0.084,0-0.241,0-0.432-0.062c-2.331-0.53-4.654-1.478-6.819-2.792c-0.703-0.437-0.977-1.323-0.645-2.066c0.783-1.809,0.575-3.167-0.68-4.392c-1.223-1.189-2.565-1.366-4.353-0.568c-0.744,0.33-1.628,0.057-2.06-0.634c-1.342-2.148-2.317-4.46-2.898-6.871c-0.196-0.799,0.236-1.626,1.005-1.921c1.895-0.735,2.722-1.859,2.68-3.643c-0.041-1.707-0.881-2.77-2.724-3.447c-0.783-0.277-1.231-1.105-1.031-1.922c0.556-2.44,1.502-4.774,2.809-6.922c0.429-0.724,1.336-1,2.103-0.632c1.834,0.843,3.212,0.656,4.454-0.615c1.236-1.253,1.401-2.623,0.538-4.444c-0.359-0.75-0.099-1.654,0.608-2.099c2.104-1.319,4.427-2.294,6.906-2.898c0.801-0.206,1.635,0.229,1.931,1.021c0.764,2.057,1.971,2.911,3.912,2.769c1.562-0.117,2.614-1.017,3.213-2.751c0.278-0.804,1.1-1.268,1.931-1.064c2.426,0.561,4.761,1.524,6.933,2.862c0.702,0.425,0.977,1.322,0.63,2.083c-0.854,1.863-0.675,3.247,0.583,4.491c1.25,1.236,2.609,1.412,4.404,0.571c0.651-0.31,1.447-0.147,1.927,0.401c1.053,1.193,2.883,5.589,3.058,7.348c0.083,0.726-0.346,1.429-1.042,1.696c-1.896,0.736-2.728,1.859-2.691,3.639c0.036,1.689,0.866,2.755,2.692,3.456c0.761,0.292,1.196,1.111,1.014,1.905l-0.002,0.006c-0.577,2.431-1.541,4.748-2.864,6.884c-0.422,0.684-1.298,0.964-2.036,0.652c-1.968-0.841-3.398-0.571-4.64,0.88c-1.001,1.167-1.12,2.427-0.386,4.086c0.323,0.765,0.061,1.619-0.616,2.047l-0.268,0.182c-2.032,1.207-4.145,2.082-6.332,2.632c-1.027,0.267-1.922-0.174-2.329-1.151c-0.605-1.508-1.825-2.381-3.362-2.42L35.96,83.3c-1.471,0.015-2.746,0.972-3.328,2.497c-0.018,0.076-0.088,0.206-0.15,0.312C32.25,86.609,31.639,87,31.003,87z M30.756,85.106c-0.007,0.016-0.014,0.037-0.021,0.062c0.009-0.023,0.018-0.046,0.026-0.07C30.76,85.102,30.758,85.104,30.756,85.106z M25.058,82.597c1.815,1.069,3.755,1.859,5.766,2.35c0.924-2.208,2.786-3.557,4.955-3.642l0.013-0.004l0.223-0.006c2.398,0,4.38,1.355,5.308,3.628c2.055-0.519,3.962-1.313,5.753-2.375c0.003-0.002,0.007-0.005,0.011-0.008c-0.907-2.236-0.637-4.231,0.812-5.921c1.759-2.057,3.997-2.573,6.648-1.539c1.078-1.794,1.881-3.721,2.391-5.737c-2.394-1.011-3.633-2.747-3.685-5.164c-0.052-2.548,1.194-4.376,3.704-5.438c-0.271-1.439-1.597-4.655-2.369-5.758c-2.455,1.059-4.603,0.694-6.396-1.078c-1.798-1.779-2.175-3.949-1.123-6.455c-1.822-1.086-3.758-1.886-5.767-2.383c-0.894,2.311-2.563,3.62-4.847,3.791c-2.747,0.203-4.714-1.066-5.815-3.766c-2.062,0.534-3.989,1.342-5.751,2.41c1.07,2.467,0.718,4.623-1.049,6.414c-1.772,1.813-3.938,2.202-6.435,1.154c-1.063,1.808-1.848,3.744-2.34,5.774c2.425,0.989,3.679,2.723,3.737,5.162c0.06,2.546-1.174,4.374-3.667,5.438c0.514,2,1.326,3.924,2.419,5.727c2.411-0.98,4.519-0.614,6.271,1.087C25.613,78.004,26.027,80.135,25.058,82.597z M24.941,82.877c-0.001,0.002-0.002,0.005-0.003,0.007C24.939,82.882,24.94,82.88,24.941,82.877z M47.275,82.413c-0.004,0.002-0.008,0.005-0.012,0.008C47.268,82.418,47.271,82.416,47.275,82.413z M14.846,69.56c-0.001,0-0.002,0-0.003,0.001C14.844,69.56,14.845,69.56,14.846,69.56z M15.061,69.144c0,0.001,0,0.001,0,0.002C15.061,69.145,15.061,69.145,15.061,69.144z M14.996,59.132c-0.001,0.003-0.002,0.007-0.003,0.01C14.994,59.139,14.995,59.135,14.996,59.132z M56.996,59.004c0,0.003,0,0.006,0.001,0.01C56.996,59.01,56.996,59.007,56.996,59.004z M14.757,58.724c0.003,0.001,0.005,0.002,0.008,0.003C14.763,58.726,14.76,58.725,14.757,58.724z M57.224,58.631c-0.001,0-0.002,0.001-0.004,0.001C57.222,58.632,57.223,58.631,57.224,58.631z M17.107,52.937c0.003,0.002,0.007,0.003,0.01,0.005C17.114,52.94,17.11,52.939,17.107,52.937z M54.854,52.861c-0.002,0-0.003,0.001-0.005,0.002C54.852,52.862,54.853,52.862,54.854,52.861z M17.571,52.788c-0.002,0.003-0.003,0.005-0.005,0.008C17.568,52.793,17.569,52.791,17.571,52.788z M47.337,45.611c0.002,0.001,0.004,0.002,0.005,0.003C47.341,45.614,47.339,45.612,47.337,45.611z M24.756,45.208c0,0.001,0.001,0.002,0.001,0.002C24.757,45.21,24.756,45.209,24.756,45.208z M30.953,43.011c-0.004,0.001-0.008,0.002-0.011,0.002C30.945,43.013,30.949,43.012,30.953,43.011z M40.992,42.992c0.002,0,0.004,0.001,0.006,0.001C40.996,42.993,40.994,42.992,40.992,42.992z"/><path fill="#1f212b" d="M36,69c-2.757,0-5-2.243-5-5s2.243-5,5-5s5,2.243,5,5S38.757,69,36,69z M36,61c-1.654,0-3,1.346-3,3s1.346,3,3,3s3-1.346,3-3S37.654,61,36,61z"/><path fill="#1f212b" d="M36,74c-5.514,0-10-4.486-10-10s4.486-10,10-10s10,4.486,10,10S41.514,74,36,74z M36,55c-4.963,0-9,4.038-9,9s4.037,9,9,9s9-4.038,9-9S40.963,55,36,55z"/><path fill="#1f212b" d="M22.5 64.5c-.276 0-.5-.224-.5-.5 0-7.72 6.28-14 14-14 1.23 0 2.452.16 3.629.475.268.071.426.346.354.612-.072.267-.346.426-.612.354C38.277 51.148 37.144 51 36 51c-7.168 0-13 5.832-13 13C23 64.276 22.776 64.5 22.5 64.5zM42.5 52.665c-.082 0-.165-.02-.241-.062-.313-.172-.634-.332-.962-.479-.253-.112-.366-.408-.254-.66.113-.252.411-.366.66-.253.355.158.701.33 1.038.516.242.133.33.438.196.679C42.847 52.572 42.676 52.665 42.5 52.665zM49.27 67c-.031 0-.062-.003-.094-.009-.271-.051-.449-.312-.398-.583C48.925 65.622 49 64.812 49 64c0-3.936-1.755-7.617-4.815-10.101-.214-.174-.247-.489-.073-.703.176-.215.49-.247.704-.073C48.11 55.797 50 59.761 50 64c0 .873-.081 1.746-.24 2.592C49.715 66.833 49.505 67 49.27 67zM47.835 71c-.082 0-.165-.02-.241-.062-.242-.133-.33-.437-.197-.679.34-.617.631-1.265.863-1.926.092-.26.382-.394.638-.305.261.092.397.377.306.638-.251.712-.564 1.41-.93 2.075C48.182 70.907 48.011 71 47.835 71zM39.5 77.542c-.221 0-.423-.147-.483-.371-.071-.267.087-.541.354-.612 2.663-.713 4.994-2.23 6.74-4.388.174-.215.488-.248.703-.074.215.174.248.489.074.703-1.88 2.323-4.39 3.957-7.26 4.725C39.586 77.537 39.542 77.542 39.5 77.542zM36 78c-5.925 0-11.23-3.751-13.203-9.333-.092-.26.045-.546.305-.638.261-.091.546.043.639.305C25.571 73.517 30.498 77 36 77c.484 0 .971-.027 1.444-.08.281-.032.522.167.553.442.03.274-.167.521-.441.552C37.044 77.971 36.521 78 36 78zM69.987 46.993c-.843 0-1.674-.063-2.494-.187-.884-.127-1.457-.787-1.454-1.68.016-1.016-.466-1.813-1.325-2.215h-.002l-.13-.053c-.851-.346-1.823-.097-2.535.649-.037.054-.146.141-.221.196-.347.319-.978.428-1.495.212l-.271-.154-.002.002c-1.452-1.042-2.731-2.318-3.804-3.794-.424-.598-.344-1.414.18-1.908.918-.88 1.127-1.698.692-2.727-.426-.999-1.154-1.423-2.41-1.384-.703.033-1.35-.509-1.466-1.223-.293-1.801-.297-3.609-.012-5.372.114-.719.746-1.26 1.479-1.224 1.298.043 2.051-.4 2.466-1.459.395-1.01.167-1.81-.762-2.674-.544-.496-.626-1.326-.184-1.925 1.048-1.464 2.326-2.75 3.792-3.812.596-.444 1.432-.36 1.935.205.878.958 1.701 1.184 2.744.744 1.034-.432 1.448-1.17 1.389-2.471-.037-.734.485-1.383 1.216-1.505 1.765-.291 3.581-.291 5.395-.001.722.103 1.256.746 1.228 1.493-.06 1.421.418 2.194 1.597 2.591.593.198 1.502.326 2.538-.834.503-.562 1.338-.649 1.941-.208 1.453 1.046 2.736 2.336 3.808 3.831.428.591.343 1.416-.198 1.917-.978.898-1.209 1.724-.776 2.764.428 1.032 1.143 1.447 2.436 1.398.638-.027 1.232.377 1.438.988.381 1.128.373 4.55-.014 5.811-.182.623-.778 1.043-1.435 1.028-1.324-.041-2.053.4-2.471 1.455-.394.999-.172 1.798.742 2.673.521.5.597 1.317.177 1.902l-.005.006c-1.062 1.455-2.347 2.725-3.821 3.774-.577.414-1.389.344-1.886-.165-.967-.998-1.844-1.187-2.928-.639-.872.437-1.232 1.123-1.209 2.294 0 .736-.507 1.342-1.206 1.461l-.222.044C71.612 46.935 70.794 46.993 69.987 46.993zM68.035 44.863c1.27.168 2.555.174 3.842.015.084-1.691.858-2.922 2.304-3.647 1.229-.619 3.051-.972 4.912.697 1.026-.779 1.941-1.681 2.729-2.691-1.518-1.685-1.332-3.363-.882-4.505.478-1.207 1.546-2.617 3.936-2.715.162-1.013.158-2.917.027-3.83-2.34-.071-3.413-1.449-3.904-2.632-.493-1.187-.706-2.928.92-4.658-.79-1.033-1.695-1.945-2.702-2.721-1.576 1.51-3.2 1.411-4.318 1.038-1.336-.45-2.888-1.521-2.963-4.072-1.296-.167-2.58-.167-3.833-.002-.068 2.346-1.438 3.422-2.618 3.915-1.186.5-2.927.726-4.652-.893-1.019.789-1.923 1.7-2.701 2.72 1.55 1.678 1.368 3.367.917 4.521-.474 1.206-1.532 2.615-3.898 2.725-.164 1.261-.16 2.545.011 3.831 2.27.117 3.322 1.453 3.809 2.596.495 1.172.727 2.89-.818 4.609.792 1.025 1.705 1.937 2.721 2.712 1.27-1.128 2.864-1.458 4.326-.924l.195.073C66.992 41.694 67.966 43.117 68.035 44.863zM72.264 44.817c-.009.001-.018.003-.027.005L72.264 44.817zM60.598 42.127c.002 0-.026.028-.059.068.029-.03.058-.059.086-.088-.022.015-.044.032-.065.051C60.586 42.136 60.597 42.127 60.598 42.127zM78.732 42.193c-.001 0-.002.001-.002.001C78.73 42.194 78.731 42.193 78.732 42.193zM57.82 39.502c-.002.002-.005.004-.007.007C57.815 39.507 57.818 39.504 57.82 39.502zM84.792 32.399c-.001.003-.002.007-.003.011C84.79 32.407 84.791 32.403 84.792 32.399zM85.322 32.012c.003 0 .006 0 .008 0C85.328 32.013 85.325 32.012 85.322 32.012zM85.368 28.183c-.002 0-.004 0-.007 0C85.364 28.183 85.366 28.183 85.368 28.183zM54.661 28.13c.001 0 .003 0 .004 0C54.664 28.13 54.663 28.13 54.661 28.13zM84.823 27.81c0 0 0 .001 0 .001C84.823 27.811 84.823 27.811 84.823 27.81zM55.214 27.672c0 0 0 .001 0 .002C55.214 27.674 55.214 27.673 55.214 27.672zM82.195 21.27c.001.001.001.002.002.003C82.196 21.272 82.196 21.271 82.195 21.27zM57.866 21.237c-.003.004-.006.008-.009.013C57.86 21.245 57.863 21.241 57.866 21.237zM57.777 20.526c.003.003.006.006.009.008C57.783 20.532 57.78 20.529 57.777 20.526zM78.838 17.892c.002.002.005.003.007.005C78.843 17.896 78.84 17.894 78.838 17.892zM61.216 17.872c-.004.003-.008.006-.012.009C61.208 17.878 61.212 17.875 61.216 17.872zM60.482 17.807c.003.004.007.008.011.012C60.489 17.814 60.485 17.811 60.482 17.807zM72.394 15.207c.006.001.012.002.017.002C72.405 15.208 72.399 15.208 72.394 15.207zM68.097 14.642c0 .001 0 .003 0 .005C68.097 14.646 68.097 14.644 68.097 14.642z"/><path fill="#1f212b" d="M70 34c-2.206 0-4-1.794-4-4s1.794-4 4-4 4 1.794 4 4S72.206 34 70 34zM70 28c-1.103 0-2 .897-2 2s.897 2 2 2 2-.897 2-2S71.103 28 70 28zM74.5 24.5c-.105 0-.211-.033-.301-.101-.292-.22-.605-.419-.934-.592-.243-.129-.337-.432-.208-.676.13-.245.432-.336.677-.208.374.198.732.426 1.066.677.221.166.265.479.099.7C74.801 24.431 74.651 24.5 74.5 24.5zM75 36.09c-.137 0-.273-.056-.373-.167-.184-.206-.166-.522.04-.706C76.149 33.89 77 31.988 77 30c0-1.529-.483-2.981-1.398-4.2-.166-.221-.122-.534.1-.7.221-.165.534-.122.699.1 1.047 1.393 1.6 3.053 1.6 4.8 0 2.272-.972 4.446-2.667 5.962C75.238 36.048 75.119 36.09 75 36.09z"/><path fill="#1f212b" d="M70 38c-3.79 0-7.088-2.692-7.84-6.4-.055-.271.12-.535.391-.59.273-.053.535.12.59.391C63.799 34.645 66.684 37 70 37c.974 0 1.915-.196 2.8-.582.253-.111.548.004.658.258.11.253-.005.548-.258.658C72.188 37.776 71.112 38 70 38zM63.365 27c-.079 0-.159-.019-.233-.058-.244-.129-.338-.432-.209-.676C64.314 23.635 67.026 22 70 22c.538 0 1.076.054 1.6.16.271.055.445.319.391.589-.055.271-.318.446-.59.391C70.942 23.047 70.471 23 70 23c-2.602 0-4.975 1.431-6.192 3.733C63.718 26.903 63.544 27 63.365 27zM32.5 51H33.5V55H32.5z"/><path fill="#1f212b" d="M33.938 52H38.061V53H33.938z" transform="rotate(-75.99 35.999 52.498)"/><path fill="#1f212b" d="M29.75 51.984H30.75V56.015H29.75z" transform="rotate(-7.115 30.267 54.01)"/><path fill="#1f212b" d="M45 60.5H49V61.5H45z"/><path fill="#1f212b" d="M47 61.938H48V66.061H47z" transform="rotate(-75.965 47.5 64.003)"/><path fill="#1f212b" d="M43.984 57.75H48.015V58.75H43.984z" transform="rotate(-7.18 45.999 58.249)"/><path fill="#1f212b" d="M26.121 71.742H30.121V72.742H26.121z" transform="rotate(-31.052 28.119 72.24)"/><path fill="#1f212b" d="M24.085 69.429H28.209V70.429H24.085z" transform="rotate(-17.04 26.142 69.927)"/><path fill="#1f212b" d="M28.381 73.583H32.412V74.582H28.381z" transform="rotate(-38.131 30.402 74.085)"/><path fill="#1f212b" d="M31.163 74.66H35.286V75.66H31.163z" transform="rotate(-61.985 33.222 75.16)"/><path fill="#1f212b" d="M67.486 24.25H72.01400000000001V25.25H67.486z" transform="rotate(-83.667 69.749 24.75)"/><path fill="#1f212b" d="M74.707 28.45H75.707V32.978H74.707z" transform="rotate(-73.123 75.211 30.715)"/><path fill="#1f212b" d="M66.5 23.445H67.5V28.055H66.5z" transform="rotate(-12.525 67.01 25.75)"/><path fill="#1f212b" d="M64.2 33.389H68.72800000000001V34.389H64.2z" transform="rotate(-38.659 66.464 33.888)"/><path fill="#1f212b" d="M66.811 34.627H71.421V35.627H66.811z" transform="rotate(-57.52 69.115 35.125)"/></svg>