<?xml version="1.0" encoding="UTF-8"?>
<svg xmlns="http://www.w3.org/2000/svg" xmlns:xlink="http://www.w3.org/1999/xlink" width="96pt" height="96pt" viewBox="0 0 96 96" version="1.1">
<g id="surface11638344">
<path style=" stroke:none;fill-rule:nonzero;fill:rgb(80%,80%,80%);fill-opacity:1;" d="M 48 96 C 21.492188 96 0 74.507812 0 48 C 0 21.492188 21.492188 0 48 0 C 74.507812 0 96 21.492188 96 48 C 96 74.507812 74.507812 96 48 96 Z M 48 96 "/>
<path style=" stroke:none;fill-rule:nonzero;fill:rgb(0%,0%,0%);fill-opacity:1;" d="M 48 21.601562 C 33.457031 21.601562 21.671875 33.386719 21.671875 47.929688 C 21.671875 61.128906 31.394531 72.027344 44.0625 73.933594 L 44.0625 54.90625 L 37.550781 54.90625 L 37.550781 47.984375 L 44.0625 47.984375 L 44.0625 43.378906 C 44.0625 35.753906 47.777344 32.410156 54.117188 32.410156 C 57.152344 32.410156 58.753906 32.632812 59.515625 32.734375 L 59.515625 38.773438 L 55.191406 38.773438 C 52.503906 38.773438 51.5625 41.324219 51.5625 44.203125 L 51.5625 47.984375 L 59.449219 47.984375 L 58.378906 54.90625 L 51.566406 54.90625 L 51.566406 73.988281 C 64.417969 72.246094 74.328125 61.257812 74.328125 47.929688 C 74.328125 33.386719 62.542969 21.601562 48 21.601562 Z M 48 21.601562 "/>
</g>
</svg>
